<svg width="258" height="257" xmlns="http://www.w3.org/2000/svg" xmlns:xlink="http://www.w3.org/1999/xlink" xml:space="preserve" overflow="hidden"><g transform="translate(-114 -360)"><g><g><g><g><path d="M286.333 440.312C286.333 463.969 267.156 483.146 243.5 483.146 219.844 483.146 200.667 463.969 200.667 440.312 200.667 416.656 219.844 397.479 243.5 397.479 267.156 397.479 286.333 416.656 286.333 440.312Z" fill="#A5A5A5" fill-rule="nonzero" fill-opacity="1"/><path d="M329.167 579.521 329.167 536.688C329.167 530.263 325.954 523.838 320.6 519.554 308.821 509.917 293.829 503.492 278.837 499.208 268.129 495.996 256.35 493.854 243.5 493.854 231.721 493.854 219.942 495.996 208.162 499.208 193.171 503.492 178.179 510.987 166.4 519.554 161.046 523.838 157.833 530.263 157.833 536.688L157.833 579.521 329.167 579.521Z" fill="#A5A5A5" fill-rule="nonzero" fill-opacity="1"/></g></g></g></g></g></svg>